<?xml version="1.0" standalone="no"?>
<!DOCTYPE svg PUBLIC "-//W3C//DTD SVG 20010904//EN"
 "http://www.w3.org/TR/2001/REC-SVG-20010904/DTD/svg10.dtd">
<svg version="1.0" xmlns="http://www.w3.org/2000/svg"
 width="944.000000pt" height="944.000000pt" viewBox="0 0 944.000000 944.000000"
 preserveAspectRatio="xMidYMid meet">
<metadata>
Created by potrace 1.14, written by Peter Selinger 2001-2017
</metadata>
<g transform="translate(0.000000,944.000000) scale(0.100000,-0.100000)"
fill="#000000" stroke="none">
<path d="M7715 8264 c-25 -6 -64 -39 -88 -74 -35 -50 -25 -88 105 -410 82
-204 126 -307 200 -460 77 -159 111 -240 102 -240 -4 0 -2 -6 3 -12 6 -7 20
-47 33 -88 12 -41 35 -113 52 -160 16 -47 34 -98 40 -115 11 -34 20 -56 38
-100 7 -16 25 -68 42 -115 16 -47 33 -94 38 -105 5 -11 14 -38 21 -60 6 -22
15 -51 20 -65 9 -29 26 -94 33 -130 3 -14 7 -36 11 -50 10 -49 40 -220 50
-285 3 -22 7 -47 10 -55 4 -16 15 -100 20 -165 2 -22 5 -40 6 -40 6 0 22 -251
22 -345 0 -95 -10 -335 -18 -420 -4 -50 -12 -192 -20 -373 -13 -270 -27 -387
-54 -452 -27 -61 -128 -263 -141 -280 -23 -29 -158 -164 -220 -218 -30 -27
-126 -93 -213 -147 -155 -97 -232 -130 -332 -145 -57 -8 -156 -29 -350 -74
-93 -21 -190 -42 -215 -46 -25 -4 -54 -9 -65 -12 -11 -2 -33 -6 -48 -8 -16 -2
-40 -6 -55 -9 -25 -5 -65 -11 -139 -20 -15 -2 -48 -7 -72 -11 -24 -3 -64 -8
-90 -11 -25 -2 -62 -6 -81 -8 -19 -3 -62 -7 -94 -10 -33 -4 -71 -8 -85 -11
-14 -2 -62 -7 -106 -10 -44 -4 -100 -8 -125 -11 -157 -15 -256 -18 -510 -18
-246 1 -545 8 -795 19 -236 11 -313 16 -340 19 -16 3 -66 8 -110 12 -44 3 -91
8 -105 10 -14 2 -50 6 -80 10 -30 3 -57 9 -60 12 -3 4 -14 7 -25 7 -11 -1 -45
5 -75 13 -30 8 -62 15 -70 17 -18 4 -149 52 -245 90 -247 97 -431 216 -514
333 -45 65 -104 283 -80 297 4 3 6 13 4 23 -4 25 23 73 58 105 48 43 218 139
347 196 82 36 224 91 253 96 9 2 21 7 27 10 5 3 101 37 212 76 112 39 241 84
288 100 47 17 92 32 100 34 8 2 40 13 70 25 30 12 62 23 70 25 8 2 42 13 75
25 33 12 67 23 75 25 29 7 306 104 390 136 47 19 88 32 93 31 4 -1 7 2 7 7 0
5 12 12 26 15 34 9 319 150 334 166 3 3 37 25 75 50 39 24 79 52 90 62 11 10
31 27 45 39 88 73 161 153 220 239 59 85 67 98 87 143 10 20 21 37 25 37 5 0
8 4 8 10 0 5 15 41 34 79 48 99 74 182 92 296 15 100 11 255 -10 355 -6 28
-29 132 -31 140 -1 3 -5 21 -9 40 -27 120 -127 347 -228 515 -9 17 -26 46 -37
65 -33 59 -126 188 -183 253 -98 113 -260 257 -287 257 -6 0 -11 4 -11 8 0 7
-91 55 -109 58 -3 0 -19 6 -36 13 -252 101 -386 151 -408 151 -10 0 -26 4 -36
10 -17 8 -45 16 -96 24 -11 2 -41 9 -68 15 -26 6 -64 14 -83 17 -40 6 -46 7
-154 28 -86 17 -129 24 -265 41 -27 3 -61 8 -75 10 -127 19 -604 26 -785 12
-142 -12 -259 -23 -310 -31 -16 -3 -48 -7 -70 -11 -22 -3 -60 -10 -85 -16 -25
-5 -58 -11 -75 -14 -16 -2 -97 -23 -180 -45 -82 -23 -154 -43 -160 -44 -17 -3
-119 -37 -140 -46 -11 -4 -57 -22 -102 -40 -84 -33 -283 -139 -310 -165 -8 -8
-18 -15 -22 -15 -11 0 -159 -114 -210 -163 -64 -60 -166 -175 -207 -233 -107
-151 -168 -248 -209 -329 -11 -22 -23 -42 -26 -45 -10 -9 -105 -233 -132 -310
-24 -68 -61 -203 -72 -259 -2 -13 -6 -30 -9 -39 -3 -9 -8 -30 -11 -47 -2 -16
-7 -39 -9 -50 -30 -134 -70 -373 -82 -480 -12 -109 -13 -119 -20 -215 -7 -101
-7 -928 0 -1140 8 -217 22 -454 30 -510 2 -19 8 -62 12 -95 11 -96 20 -162 29
-205 17 -79 27 -127 30 -145 5 -29 14 -67 34 -147 5 -21 6 -38 2 -38 -3 0 -1
-4 6 -8 6 -4 13 -20 16 -37 15 -86 106 -331 168 -452 48 -93 145 -245 161
-251 4 -2 8 -8 8 -13 0 -6 5 -15 10 -22 6 -7 46 -59 89 -117 102 -136 221
-259 294 -305 56 -35 292 -151 311 -153 5 0 12 -4 15 -9 14 -20 278 -132 348
-148 10 -2 54 -14 98 -25 44 -12 91 -23 105 -26 14 -3 41 -9 60 -14 19 -5 46
-11 60 -14 40 -9 157 -35 163 -37 1 0 11 -2 22 -4 11 -1 36 -6 55 -10 19 -3
46 -8 60 -10 14 -3 36 -7 50 -10 14 -3 49 -7 79 -10 30 -3 57 -7 60 -9 25 -16
298 -21 1016 -21 940 1 1298 10 1495 40 22 3 92 12 160 20 105 13 129 16 156
20 18 3 63 7 100 10 72 6 118 11 194 21 45 6 59 9 103 20 12 3 33 7 46 10 13
3 69 20 125 40 55 19 108 36 116 38 8 3 17 5 20 6 3 1 8 2 13 1 4 0 7 3 7 9 0
5 4 10 9 10 5 0 35 12 67 27 33 15 62 27 65 27 17 2 69 55 78 80 15 38 14 62
-5 102 -35 74 -110 89 -219 44 -26 -11 -184 -62 -187 -60 -2 0 -30 -9 -63 -20
-33 -12 -73 -24 -90 -27 -16 -3 -38 -9 -47 -14 -10 -5 -18 -8 -18 -5 0 2 -19
-1 -42 -6 -49 -11 -66 -14 -123 -23 -22 -3 -53 -7 -70 -10 -43 -7 -105 -16
-140 -20 -16 -3 -43 -8 -60 -11 -16 -4 -41 -8 -55 -9 -14 -1 -38 -5 -55 -8
-16 -4 -50 -9 -75 -13 -24 -3 -47 -7 -50 -9 -3 -1 -36 -6 -73 -10 -37 -3 -76
-8 -85 -10 -50 -9 -233 -22 -447 -30 -389 -16 -1649 -26 -1740 -13 -66 9 -226
37 -245 43 -8 2 -30 7 -48 10 -19 3 -70 14 -115 25 -45 10 -85 16 -89 14 -4
-3 -8 -1 -8 4 0 6 -15 12 -32 15 -60 10 -267 74 -285 89 -7 6 -13 8 -13 5 0
-3 -41 15 -91 39 -77 38 -129 67 -267 149 -96 57 -152 94 -177 116 -16 15 -39
36 -50 46 -27 24 -101 107 -150 167 -22 27 -44 54 -50 60 -25 28 -65 86 -65
94 0 6 -3 12 -8 14 -4 1 -25 28 -47 58 -22 30 -42 57 -45 60 -10 9 -106 164
-127 205 -11 22 -37 83 -58 135 -20 52 -41 104 -46 115 -17 39 -89 268 -89
285 0 9 -3 20 -7 24 -4 3 -8 12 -9 19 -1 7 -11 51 -22 97 -11 47 -23 99 -27
115 -3 17 -8 41 -10 55 -10 48 -24 151 -30 210 -2 25 -6 65 -9 90 -39 350 -66
1299 -43 1520 15 143 19 175 25 185 4 6 5 18 4 28 -2 9 2 41 8 70 6 30 13 64
15 78 10 49 13 65 25 109 7 25 14 56 16 70 2 14 11 52 19 85 9 33 18 69 19 80
11 62 82 285 116 361 33 76 105 217 132 260 14 21 26 42 26 47 1 4 11 17 22
29 11 12 20 25 20 30 0 4 6 16 14 25 8 10 39 50 68 89 29 39 67 87 83 105 43
48 149 139 163 139 6 0 17 6 24 13 13 13 44 32 153 95 113 65 180 98 265 131
47 18 94 37 105 41 11 5 38 14 60 20 22 6 47 14 55 17 8 3 20 7 25 8 6 2 69
19 140 39 72 19 148 38 170 42 49 8 69 12 73 14 1 2 10 3 20 4 9 1 35 5 57 9
22 4 60 10 85 13 25 2 59 7 75 9 217 27 792 27 929 -1 11 -2 44 -7 71 -10 28
-3 88 -12 135 -21 47 -8 99 -16 115 -19 17 -2 41 -6 55 -9 14 -3 41 -8 60 -11
19 -4 42 -8 50 -10 8 -2 49 -11 90 -19 41 -9 104 -26 140 -38 36 -12 67 -22
70 -23 24 -6 250 -116 334 -162 68 -38 169 -137 251 -247 16 -22 34 -45 40
-51 5 -6 17 -22 25 -34 8 -12 21 -28 28 -36 6 -7 12 -15 12 -18 0 -2 21 -35
46 -72 87 -127 201 -348 220 -424 2 -8 10 -40 18 -70 8 -30 19 -91 24 -135 10
-84 8 -292 -3 -335 -3 -14 -8 -37 -10 -52 -2 -15 -16 -53 -30 -85 -30 -64
-154 -266 -167 -271 -4 -2 -8 -10 -8 -17 0 -15 -160 -180 -204 -210 -15 -11
-34 -25 -41 -32 -18 -17 -204 -137 -245 -158 -19 -10 -38 -23 -42 -29 -4 -6
-8 -7 -8 -2 0 5 -6 4 -13 -2 -33 -28 -312 -154 -402 -182 -22 -7 -44 -16 -50
-20 -12 -9 -107 -40 -119 -39 -5 0 -12 -3 -15 -8 -3 -4 -24 -14 -46 -22 -62
-21 -333 -126 -390 -151 -11 -5 -42 -16 -70 -26 -27 -10 -56 -22 -62 -27 -7
-5 -13 -7 -13 -3 0 3 -26 -6 -57 -20 -32 -13 -64 -26 -73 -28 -8 -2 -27 -8
-42 -14 -15 -6 -130 -45 -255 -87 -125 -41 -235 -78 -243 -82 -8 -3 -19 -7
-25 -8 -5 -2 -36 -14 -67 -29 -31 -14 -62 -26 -67 -26 -6 0 -11 -4 -11 -9 0
-5 -15 -15 -32 -22 -50 -20 -149 -81 -178 -109 -57 -54 -140 -193 -140 -232 0
-8 -4 -18 -9 -23 -15 -17 -30 -121 -25 -180 4 -59 33 -200 60 -295 42 -144
130 -256 279 -353 44 -29 82 -55 83 -59 2 -5 9 -8 15 -8 6 0 45 -16 86 -36 99
-47 101 -48 202 -83 85 -29 288 -86 344 -95 17 -3 39 -8 50 -10 65 -13 182
-27 256 -30 48 -2 90 -6 95 -9 11 -6 1510 -1 1619 6 82 6 162 13 250 22 88 9
149 16 180 20 17 2 55 6 86 9 31 3 73 8 93 11 68 10 101 14 161 21 33 3 69 8
80 11 11 2 38 6 60 8 41 5 357 59 405 69 14 3 41 9 60 13 47 9 50 10 53 13 1
1 11 3 22 4 11 2 47 9 80 16 73 17 74 17 78 19 1 2 14 4 30 6 15 2 53 9 83 15
31 7 79 14 107 16 89 7 110 11 177 29 36 9 70 18 75 19 13 4 28 10 172 72 67
28 124 49 127 46 3 -3 6 -1 6 5 0 6 15 17 33 24 17 7 64 35 102 61 184 126
277 208 333 293 15 22 30 42 33 45 8 6 47 70 123 200 52 90 113 230 100 230
-4 0 -2 6 4 13 12 15 22 62 40 194 4 32 7 70 7 86 -1 15 1 27 4 27 9 0 7 397
-1 405 -4 4 -3 15 2 25 5 10 7 20 4 23 -3 2 -7 54 -10 113 -10 224 -12 270
-19 324 -3 30 -8 80 -10 110 -2 30 -4 55 -5 55 -1 0 -3 14 -5 30 -4 27 -8 59
-20 135 -8 54 -35 198 -45 248 -7 30 -13 61 -15 70 -2 9 -4 18 -5 20 -2 1 -3
10 -4 20 -2 14 -11 56 -43 192 -3 14 -7 30 -9 35 -1 6 -5 21 -8 35 -26 115
-62 226 -153 470 -36 96 -66 180 -67 185 -1 6 -17 55 -35 110 -18 55 -34 107
-36 115 -2 8 -4 15 -5 15 -1 0 -3 7 -5 16 -7 37 -87 262 -114 321 -80 175 -74
161 -168 418 -19 52 -36 102 -38 110 -12 49 -99 300 -112 327 -10 18 -30 42
-45 53 -28 20 -95 32 -133 24z"/>
</g>
</svg>
