<svg version="1.1" xmlns="http://www.w3.org/2000/svg" viewBox="0 0 118 105" width="118" height="105">
<g transform="translate(84 91) rotate(0 -25 -38.5)" stroke="none"><path fill="#001427" d="M 0.60,1.51 Q 0.60,1.51 -0.80,2.15 -2.21,2.79 -4.05,3.35 -5.88,3.91 -8.24,4.11 -10.59,4.31 -12.92,4.64 -15.25,4.97 -17.77,5.11 -20.28,5.24 -23.08,5.29 -25.87,5.34 -29.07,5.35 -32.27,5.36 -35.35,5.36 -38.44,5.36 -40.90,5.35 -43.36,5.35 -45.37,5.09 -47.39,4.84 -49.39,4.43 -51.40,4.03 -53.15,3.61 -54.90,3.20 -56.30,2.78 -57.70,2.36 -59.25,1.56 -60.80,0.77 -61.99,0.22 -63.19,-0.32 -64.13,-0.88 -65.08,-1.43 -66.22,-2.70 -67.35,-3.96 -68.36,-5.35 -69.36,-6.74 -70.34,-8.21 -71.32,-9.67 -72.09,-11.65 -72.85,-13.63 -73.41,-15.63 -73.97,-17.62 -74.45,-20.26 -74.93,-22.89 -75.11,-25.81 -75.29,-28.72 -75.35,-31.39 -75.40,-34.05 -75.41,-36.62 -75.42,-39.20 -75.41,-41.73 -75.41,-44.26 -75.11,-46.85 -74.81,-49.44 -74.41,-51.44 -74.02,-53.44 -73.56,-55.43 -73.10,-57.42 -72.28,-59.50 -71.46,-61.57 -70.20,-63.67 -68.95,-65.76 -67.51,-67.55 -66.08,-69.33 -64.53,-70.53 -62.99,-71.73 -61.17,-72.77 -59.34,-73.81 -57.01,-74.56 -54.68,-75.31 -52.26,-75.90 -49.83,-76.49 -47.29,-76.74 -44.75,-77.00 -41.94,-77.10 -39.13,-77.20 -36.43,-76.95 -33.73,-76.70 -31.42,-76.30 -29.11,-75.89 -26.97,-75.43 -24.83,-74.97 -22.93,-74.20 -21.03,-73.43 -19.63,-72.89 -18.24,-72.35 -16.84,-71.13 -15.45,-69.90 -14.29,-68.50 -13.14,-67.10 -12.08,-65.26 -11.01,-63.43 -10.22,-61.75 -9.43,-60.08 -9.01,-58.36 -8.60,-56.64 -8.38,-55.33 -8.16,-54.01 -8.40,-52.08 -8.64,-50.15 -9.38,-48.53 -10.12,-46.91 -11.02,-45.43 -11.92,-43.96 -13.33,-42.58 -14.73,-41.20 -16.60,-40.06 -18.46,-38.92 -20.75,-37.91 -23.04,-36.90 -26.09,-35.91 -29.13,-34.92 -31.80,-33.97 -34.48,-33.01 -36.51,-32.33 -38.53,-31.64 -40.24,-31.01 -41.95,-30.37 -43.17,-29.77 -44.39,-29.16 -45.78,-28.31 -47.17,-27.46 -47.25,-26.36 -47.33,-25.26 -46.93,-23.95 -46.53,-22.63 -45.75,-21.84 -44.97,-21.05 -43.86,-20.30 -42.75,-19.56 -41.25,-18.90 -39.74,-18.24 -37.96,-17.59 -36.18,-16.94 -34.14,-16.62 -32.10,-16.30 -29.21,-16.12 -26.32,-15.93 -23.06,-15.82 -19.81,-15.72 -16.70,-15.65 -13.59,-15.59 -10.62,-15.83 -7.64,-16.07 -4.35,-16.45 -1.06,-16.83 1.45,-17.26 3.97,-17.70 5.87,-18.19 7.77,-18.68 9.52,-18.96 11.27,-19.24 12.28,-19.91 13.29,-20.57 14.37,-21.22 15.46,-21.86 16.32,-22.63 17.18,-23.40 18.11,-24.30 19.03,-25.20 19.53,-26.22 20.02,-27.24 20.56,-28.33 21.09,-29.42 21.25,-31.34 21.40,-33.26 21.44,-34.62 21.48,-35.98 21.62,-37.99 21.76,-40.00 21.89,-42.30 22.01,-44.59 21.82,-46.90 21.63,-49.21 21.30,-51.34 20.96,-53.47 20.55,-55.53 20.15,-57.58 19.44,-59.52 18.73,-61.46 18.08,-63.19 17.42,-64.91 16.85,-66.84 16.29,-68.76 15.50,-70.29 14.72,-71.82 14.02,-73.43 13.32,-75.03 12.24,-77.75 11.17,-80.47 11.13,-80.77 11.09,-81.08 11.15,-81.38 11.22,-81.68 11.37,-81.95 11.53,-82.21 11.76,-82.41 12.00,-82.62 12.28,-82.73 12.56,-82.85 12.87,-82.87 13.18,-82.89 13.48,-82.81 13.78,-82.73 14.03,-82.56 14.29,-82.39 14.48,-82.15 14.67,-81.91 14.77,-81.61 14.87,-81.32 14.87,-81.02 14.88,-80.71 14.78,-80.41 14.69,-80.12 14.50,-79.87 14.32,-79.63 14.07,-79.45 13.81,-79.28 13.52,-79.19 13.22,-79.10 12.91,-79.12 12.61,-79.13 12.32,-79.24 12.03,-79.35 11.79,-79.55 11.56,-79.75 11.40,-80.01 11.23,-80.27 11.16,-80.57 11.09,-80.87 11.12,-81.18 11.15,-81.48 11.28,-81.77 11.41,-82.05 11.62,-82.27 11.83,-82.50 12.10,-82.65 12.37,-82.79 12.67,-82.85 12.97,-82.90 13.28,-82.85 13.58,-82.81 13.86,-82.67 14.13,-82.52 14.35,-82.30 14.56,-82.08 14.69,-81.80 14.82,-81.52 14.82,-81.52 14.82,-81.52 15.68,-78.92 16.53,-76.32 17.10,-74.79 17.66,-73.25 18.49,-71.45 19.33,-69.66 19.86,-67.81 20.39,-65.97 20.96,-64.25 21.54,-62.52 22.37,-60.40 23.21,-58.27 23.72,-56.18 24.23,-54.08 24.71,-51.86 25.20,-49.63 25.57,-47.11 25.95,-44.58 26.06,-42.27 26.17,-39.96 26.27,-37.89 26.38,-35.82 26.32,-34.34 26.27,-32.86 26.11,-31.38 25.95,-29.89 25.55,-28.59 25.14,-27.29 24.49,-26.17 23.83,-25.04 22.89,-23.56 21.94,-22.07 20.81,-21.12 19.69,-20.17 18.45,-19.31 17.20,-18.45 16.04,-17.95 14.88,-17.46 13.30,-16.80 11.72,-16.14 10.09,-16.01 8.46,-15.88 6.46,-15.41 4.47,-14.93 1.87,-14.44 -0.71,-13.96 -4.04,-13.53 -7.37,-13.09 -10.49,-12.78 -13.61,-12.46 -16.73,-12.43 -19.86,-12.41 -23.15,-12.39 -26.44,-12.37 -29.49,-12.39 -32.53,-12.42 -34.98,-12.59 -37.44,-12.76 -39.45,-13.27 -41.47,-13.78 -43.51,-14.49 -45.54,-15.20 -47.34,-16.34 -49.13,-17.48 -50.02,-18.62 -50.91,-19.77 -51.33,-21.57 -51.76,-23.38 -51.95,-24.61 -52.15,-25.84 -51.27,-27.85 -50.40,-29.86 -49.08,-30.64 -47.76,-31.43 -46.75,-31.92 -45.75,-32.42 -44.36,-32.89 -42.98,-33.37 -41.26,-33.92 -39.54,-34.46 -37.56,-35.21 -35.58,-35.95 -32.90,-37.01 -30.22,-38.07 -27.40,-39.10 -24.59,-40.14 -22.59,-41.19 -20.59,-42.24 -19.11,-43.25 -17.63,-44.26 -16.58,-45.23 -15.52,-46.20 -14.70,-47.54 -13.88,-48.88 -13.27,-49.83 -12.66,-50.79 -12.44,-52.20 -12.21,-53.61 -12.26,-54.76 -12.30,-55.90 -12.50,-57.26 -12.70,-58.62 -13.35,-60.13 -14.01,-61.65 -14.99,-63.25 -15.98,-64.85 -16.94,-66.13 -17.90,-67.41 -18.78,-68.43 -19.66,-69.45 -20.91,-70.14 -22.16,-70.83 -23.78,-71.60 -25.40,-72.36 -27.48,-72.81 -29.56,-73.25 -31.77,-73.63 -33.98,-74.01 -36.51,-74.24 -39.03,-74.47 -41.75,-74.36 -44.47,-74.25 -46.81,-74.00 -49.15,-73.75 -51.47,-73.16 -53.78,-72.56 -55.82,-71.88 -57.87,-71.20 -59.57,-70.23 -61.27,-69.26 -62.61,-68.43 -63.96,-67.60 -65.26,-65.97 -66.56,-64.33 -67.68,-62.44 -68.81,-60.54 -69.53,-58.64 -70.25,-56.75 -70.71,-54.80 -71.18,-52.84 -71.59,-50.99 -72.01,-49.13 -72.27,-46.70 -72.53,-44.27 -72.49,-41.76 -72.45,-39.24 -72.37,-36.71 -72.30,-34.17 -72.16,-31.58 -72.02,-28.99 -71.75,-26.30 -71.48,-23.62 -70.88,-21.19 -70.29,-18.76 -69.67,-16.96 -69.05,-15.16 -68.41,-13.63 -67.76,-12.10 -66.78,-10.71 -65.79,-9.32 -64.87,-8.05 -63.95,-6.79 -62.64,-5.31 -61.33,-3.84 -60.17,-3.15 -59.01,-2.46 -57.74,-1.69 -56.46,-0.93 -55.27,-0.38 -54.07,0.16 -52.44,0.66 -50.80,1.17 -48.88,1.58 -46.96,1.99 -45.16,2.31 -43.36,2.62 -40.90,2.61 -38.45,2.59 -35.37,2.57 -32.30,2.54 -29.12,2.50 -25.95,2.45 -23.21,2.36 -20.48,2.26 -18.11,2.08 -15.75,1.89 -13.34,1.45 -10.93,1.02 -8.92,0.76 -6.90,0.50 -5.21,0.00 -3.53,-0.49 -2.06,-1.00 -0.60,-1.51 -0.41,-1.56 -0.22,-1.61 -0.02,-1.61 0.16,-1.62 0.35,-1.57 0.55,-1.53 0.72,-1.44 0.90,-1.35 1.05,-1.23 1.20,-1.10 1.31,-0.94 1.43,-0.78 1.50,-0.60 1.57,-0.41 1.60,-0.22 1.63,-0.02 1.61,0.16 1.59,0.36 1.52,0.54 1.45,0.73 1.34,0.89 1.23,1.05 1.09,1.19 0.95,1.32 0.77,1.41 0.60,1.51 0.60,1.51 L 0.60,1.51 Z"></path></g></svg>